<svg id="图层_1" data-name="图层 1" xmlns="http://www.w3.org/2000/svg" viewBox="0 0 500 219"><defs><style>.cls-1{fill:#07a14c;}.cls-2,.cls-3{fill:none;stroke-linecap:round;stroke-linejoin:round;stroke-width:40px;}.cls-2{stroke:#f7b32b;}.cls-3{stroke:#07a14c;}</style></defs><title>MBE-logo</title><path class="cls-1" d="M455.42,34.28a19.12,19.12,0,0,1,6.94,15.29v128q0,9-6.36,14.12t-16.77,5.18q-10.11,0-16.62-5.18t-6.5-14.12V108.41l-32.95,49.42q-4.92,7.53-10.4,10.7a28.2,28.2,0,0,1-26,0q-5.49-3.17-10.4-10.7l-32.66-48v67.77a17.18,17.18,0,0,1-6.5,14q-6.51,5.29-16.91,5.29-10.12,0-16.62-5.18t-6.5-14.12v-128a18.91,18.91,0,0,1,7.08-15.29q7.08-5.88,18.06-5.89A28,28,0,0,1,296.45,32a31,31,0,0,1,10.7,10.47l53.18,81.43,52.89-81.43q9-14.11,24.28-14.12Q448.48,28.39,455.42,34.28Z"/><line class="cls-2" x1="219.01" y1="45.86" x2="151.01" y2="113.86"/><line class="cls-2" x1="218.57" y1="181.86" x2="150.57" y2="113.86"/><line class="cls-3" x1="125.01" y1="40.86" x2="57.01" y2="108.86"/><line class="cls-3" x1="124.57" y1="176.86" x2="56.57" y2="108.86"/></svg>